<svg height="100px" viewBox="0 0 496 496" width="100px" xmlns="http://www.w3.org/2000/svg" xmlns:xlink="http://www.w3.org/1999/xlink"><linearGradient id="a" gradientUnits="userSpaceOnUse" x1="248" x2="248" y1="496" y2="0"><stop offset="0" stop-color="#9f2fff"/><stop offset="1" stop-color="#0bb1d3"/></linearGradient><path d="m99.054688 288-32 64h28.945312v144h304v-144h28.945312l-32-64zm9.890624 16h126.109376l-16 32h-126.109376zm275.054688 176h-128v-56h-16v56h-128v-128h116.945312l11.054688-22.113281v70.113281h16v-70.113281l11.054688 22.113281h116.945312zm3.054688-176 16 32h-126.109376l-16-32zm-259.054688 112h48v16h-48zm0 32h48v16h-48zm64 0h16v16h-16zm19.054688-317.886719 36.945312-9.417969 36.945312 9.410157 2.894532-39.671875 19.625-33.523438-34.710938-15.023437-24.753906-30.605469-24.761719 30.605469-34.710937 15.023437 19.625 33.523438zm22.152343-75.113281 14.792969-18.28125 14.792969 18.289062 21.742187 9.417969-12.375 21.140625-1.777344 24.328125-22.382812-5.703125-22.382812 5.695313-1.777344-24.328125-12.375-21.144532zm-193.046875 91.441406 1.71875 23.671875 22.121094-5.632812 22.128906 5.632812 1.71875-23.671875 11.625-19.847656-20.59375-8.921875-14.878906-18.390625-14.871094 18.382812-20.59375 8.921876zm18.9375-15.65625 4.902344-6.066406 4.902344 6.066406 7.625 3.304688-4.375 7.476562-.609375 8.328125-7.542969-1.925781-7.542969 1.917969-.617187-8.328125-4.375-7.480469zm350.773438 39.328125 22.128906-5.632812 22.128906 5.632812 1.71875-23.671875 11.625-19.847656-20.59375-8.921875-14.878906-18.390625-14.871094 18.382812-20.59375 8.921876 11.625 19.847656zm17.226562-39.328125 4.902344-6.066406 4.902344 6.066406 7.625 3.304688-4.375 7.476562-.609375 8.328125-7.542969-1.925781-7.542969 1.917969-.609375-8.328125-4.375-7.480469zm-327.539062 59.871094c15.234375 10.160156 28.769531 22.558594 40.203125 36.863281l31.6875 39.59375-6.554688-52.417969c-3.421875-27.367187-18.039062-52.558593-40.101562-69.101562l-7.664063-5.746094-23.449218 46.886719zm23.058594-26c13.527343 12.800781 22.703124 29.839844 25.847656 48.273438-10.105469-11.867188-21.570313-22.441407-34.207032-31.554688zm208.488281 50.039062-6.554688 52.417969 31.6875-39.601562c11.441407-14.304688 24.96875-26.703125 40.203125-36.863281l5.871094-3.921876-23.449219-46.886718-7.664062 5.761718c-22.054688 16.542969-36.679688 41.726563-40.09375 69.09375zm50.636719-33.320312c-12.636719 9.113281-24.109376 19.679688-34.207032 31.554688 3.152344-18.433594 12.320313-35.472657 25.847656-48.273438zm-101.742188 57.105469c0-42.160157 14.863281-83.207031 41.847656-115.601563l12.296875 10.242188c-24.601562 29.527344-38.144531 66.933594-38.144531 105.359375v33.519531h-16zm72-126.480469h-16v-16h16zm24-32h-16v-16h16zm-176 158.480469c0-38.425781-13.542969-75.832031-38.152344-105.359375l12.296875-10.242188c26.992188 32.394532 41.855469 73.449219 41.855469 115.601563v33.519531h-16zm-40-126.480469h-16v-16h16zm-24-32h-16v-16h16zm120 72h-16v-16h16zm-16 16h16v104h-16zm240 64h-16v-16h16zm-16 16h16v16h-16zm16-16h16v16h-16zm-16 0v16h-16v-16zm-8-216h-16v-16h16zm-16 16h16v16h-16zm16 0v-16h16v16zm-16 0h-16v-16h16zm-408 232h-16v-16h16zm-16 16h16v16h-16zm16 0v-16h16v16zm-16 0h-16v-16h16zm16-264h-16v-16h16zm-16 16h16v16h-16zm16 0v-16h16v16zm-16 0h-16v-16h16zm0 0" fill="url(#a)"/></svg>
